<svg width="378.809" height="69.141" viewBox="0 0 378.809 69.141" xmlns="http://www.w3.org/2000/svg"><g id="svgGroup" stroke-linecap="round" fill-rule="evenodd" font-size="9pt" stroke="#ffffff" stroke-width="0.25mm" fill="#04ff96" style="stroke:#ffffff;stroke-width:0.25mm;fill:#04ff96"><path d="M 16.406 19.043 L 16.406 50 A 12.884 12.884 0 0 0 16.627 51.896 A 9.393 9.393 0 0 0 17.188 53.76 A 6.805 6.805 0 0 0 18.362 55.631 A 8.507 8.507 0 0 0 19.068 56.348 A 4.216 4.216 0 0 0 20.694 57.245 Q 21.314 57.434 22.055 57.493 A 8.806 8.806 0 0 0 22.754 57.52 Q 25.049 57.52 26.514 56.568 Q 27.979 55.615 28.809 54.004 A 10.898 10.898 0 0 0 29.63 51.859 A 13.943 13.943 0 0 0 29.956 50.293 A 28.747 28.747 0 0 0 30.262 46.752 A 32.409 32.409 0 0 0 30.274 45.899 A 4.829 4.829 0 0 1 30.4 44.821 A 5.778 5.778 0 0 1 30.518 44.385 Q 30.731 43.703 31.428 43.114 A 4.68 4.68 0 0 1 31.641 42.944 Q 32.511 42.292 34.194 41.855 A 14.723 14.723 0 0 1 34.229 41.846 A 11.25 11.25 0 0 1 35.416 41.614 Q 36.853 41.406 38.867 41.406 Q 41.797 41.406 43.384 42.066 A 9.437 9.437 0 0 1 44.333 42.519 Q 44.786 42.77 45.136 43.044 A 3.948 3.948 0 0 1 45.703 43.579 Q 46.436 44.434 46.558 45.239 A 28.507 28.507 0 0 1 46.605 45.565 Q 46.666 45.997 46.677 46.204 A 1.563 1.563 0 0 1 46.68 46.289 A 27.332 27.332 0 0 1 46.2 51.523 A 21.525 21.525 0 0 1 44.873 55.884 Q 43.067 60.108 39.771 63.037 A 21.922 21.922 0 0 1 33.441 66.935 A 25.887 25.887 0 0 1 31.909 67.505 A 29.443 29.443 0 0 1 25.205 68.893 A 36.079 36.079 0 0 1 21.875 69.043 A 16.238 16.238 0 0 1 21.367 69.034 Q 20.593 69.009 19.325 68.919 A 113.308 113.308 0 0 1 19.019 68.897 A 20.702 20.702 0 0 1 17.063 68.652 Q 16.043 68.478 14.923 68.198 A 34.963 34.963 0 0 1 14.6 68.115 A 24.794 24.794 0 0 1 11.491 67.074 A 30.37 30.37 0 0 1 9.57 66.211 A 15.975 15.975 0 0 1 5.397 63.223 A 18.452 18.452 0 0 1 4.859 62.671 Q 2.735 60.401 1.367 57.007 A 17.499 17.499 0 0 1 0.409 53.626 Q 0.102 51.957 0.026 50.038 A 32.759 32.759 0 0 1 0 48.731 L 0 21.485 Q 0 17.481 0.977 14.404 A 21.874 21.874 0 0 1 2.227 11.281 A 17.376 17.376 0 0 1 3.54 9.058 Q 5.127 6.787 7.178 5.249 A 25.346 25.346 0 0 1 10.575 3.088 A 22.824 22.824 0 0 1 11.377 2.686 A 27.897 27.897 0 0 1 18.339 0.504 A 35.58 35.58 0 0 1 22.754 0 A 39.858 39.858 0 0 1 26.872 0.202 Q 29.702 0.496 32.007 1.221 A 26.472 26.472 0 0 1 35.378 2.526 A 19.229 19.229 0 0 1 38.55 4.395 A 18.372 18.372 0 0 1 41.403 6.965 A 15.561 15.561 0 0 1 42.822 8.814 A 22.973 22.973 0 0 1 44.68 12.239 A 20.032 20.032 0 0 1 45.288 13.819 A 25.638 25.638 0 0 1 46.127 16.916 A 21.209 21.209 0 0 1 46.411 18.701 A 48.644 48.644 0 0 1 46.575 20.37 Q 46.641 21.192 46.665 21.918 A 24.718 24.718 0 0 1 46.68 22.754 A 11.11 11.11 0 0 1 46.663 23.348 Q 46.634 23.88 46.558 24.536 A 3.88 3.88 0 0 1 46.101 25.945 A 5.006 5.006 0 0 1 45.703 26.563 A 4.158 4.158 0 0 1 44.899 27.361 Q 44.277 27.838 43.384 28.223 Q 41.871 28.874 39.139 28.905 A 24.31 24.31 0 0 1 38.867 28.906 Q 38.204 28.906 37.314 28.85 A 45.063 45.063 0 0 1 36.426 28.784 Q 34.961 28.662 33.594 28.15 A 6.819 6.819 0 0 1 31.729 27.107 A 6.319 6.319 0 0 1 31.25 26.685 A 3.12 3.12 0 0 1 30.4 25.154 Q 30.278 24.654 30.274 24.062 A 5.936 5.936 0 0 1 30.274 24.024 A 37.679 37.679 0 0 0 30.199 21.595 Q 30.122 20.408 29.966 19.355 A 23.006 23.006 0 0 0 29.956 19.287 A 12.662 12.662 0 0 0 29.58 17.572 Q 29.276 16.547 28.809 15.723 A 5.645 5.645 0 0 0 26.514 13.477 Q 25.319 12.84 23.573 12.722 A 12.197 12.197 0 0 0 22.754 12.695 A 9.218 9.218 0 0 0 21.366 12.793 Q 19.957 13.008 19.068 13.696 A 7.896 7.896 0 0 0 18.079 14.597 Q 17.554 15.167 17.23 15.787 A 4.871 4.871 0 0 0 17.188 15.869 A 7.918 7.918 0 0 0 16.496 18.159 A 9.616 9.616 0 0 0 16.406 19.043 Z M 118.945 19.043 L 118.945 50 A 12.884 12.884 0 0 0 119.166 51.896 A 9.393 9.393 0 0 0 119.727 53.76 A 6.805 6.805 0 0 0 120.901 55.631 A 8.507 8.507 0 0 0 121.607 56.348 A 4.216 4.216 0 0 0 123.233 57.245 Q 123.853 57.434 124.594 57.493 A 8.806 8.806 0 0 0 125.293 57.52 Q 127.588 57.52 129.053 56.568 Q 130.518 55.615 131.348 54.004 A 10.898 10.898 0 0 0 132.169 51.859 A 13.943 13.943 0 0 0 132.495 50.293 A 28.747 28.747 0 0 0 132.801 46.752 A 32.409 32.409 0 0 0 132.813 45.899 A 4.829 4.829 0 0 1 132.939 44.821 A 5.778 5.778 0 0 1 133.057 44.385 Q 133.27 43.703 133.967 43.114 A 4.68 4.68 0 0 1 134.18 42.944 Q 135.05 42.292 136.733 41.855 A 14.723 14.723 0 0 1 136.768 41.846 A 11.25 11.25 0 0 1 137.955 41.614 Q 139.392 41.406 141.406 41.406 Q 144.336 41.406 145.923 42.066 A 9.437 9.437 0 0 1 146.872 42.519 Q 147.325 42.77 147.675 43.044 A 3.948 3.948 0 0 1 148.242 43.579 Q 148.975 44.434 149.097 45.239 A 28.507 28.507 0 0 1 149.144 45.565 Q 149.205 45.997 149.216 46.204 A 1.563 1.563 0 0 1 149.219 46.289 A 27.332 27.332 0 0 1 148.739 51.523 A 21.525 21.525 0 0 1 147.412 55.884 Q 145.606 60.108 142.31 63.037 A 21.922 21.922 0 0 1 135.98 66.935 A 25.887 25.887 0 0 1 134.448 67.505 A 29.443 29.443 0 0 1 127.744 68.893 A 36.079 36.079 0 0 1 124.414 69.043 A 16.238 16.238 0 0 1 123.906 69.034 Q 123.132 69.009 121.864 68.919 A 113.308 113.308 0 0 1 121.558 68.897 A 20.702 20.702 0 0 1 119.602 68.652 Q 118.582 68.478 117.462 68.198 A 34.963 34.963 0 0 1 117.139 68.115 A 24.794 24.794 0 0 1 114.03 67.074 A 30.37 30.37 0 0 1 112.11 66.211 A 15.975 15.975 0 0 1 107.936 63.223 A 18.452 18.452 0 0 1 107.398 62.671 Q 105.274 60.401 103.906 57.007 A 17.499 17.499 0 0 1 102.948 53.626 Q 102.641 51.957 102.565 50.038 A 32.759 32.759 0 0 1 102.539 48.731 L 102.539 21.485 Q 102.539 17.481 103.516 14.404 A 21.874 21.874 0 0 1 104.766 11.281 A 17.376 17.376 0 0 1 106.079 9.058 Q 107.666 6.787 109.717 5.249 A 25.346 25.346 0 0 1 113.114 3.088 A 22.824 22.824 0 0 1 113.916 2.686 A 27.897 27.897 0 0 1 120.879 0.504 A 35.58 35.58 0 0 1 125.293 0 A 39.858 39.858 0 0 1 129.411 0.202 Q 132.241 0.496 134.546 1.221 A 26.472 26.472 0 0 1 137.917 2.526 A 19.229 19.229 0 0 1 141.089 4.395 A 18.372 18.372 0 0 1 143.942 6.965 A 15.561 15.561 0 0 1 145.361 8.814 A 22.973 22.973 0 0 1 147.219 12.239 A 20.032 20.032 0 0 1 147.827 13.819 A 25.638 25.638 0 0 1 148.667 16.916 A 21.209 21.209 0 0 1 148.95 18.701 A 48.644 48.644 0 0 1 149.114 20.37 Q 149.18 21.192 149.204 21.918 A 24.718 24.718 0 0 1 149.219 22.754 A 11.11 11.11 0 0 1 149.202 23.348 Q 149.173 23.88 149.097 24.536 A 3.88 3.88 0 0 1 148.641 25.945 A 5.006 5.006 0 0 1 148.242 26.563 A 4.158 4.158 0 0 1 147.438 27.361 Q 146.816 27.838 145.923 28.223 Q 144.41 28.874 141.678 28.905 A 24.31 24.31 0 0 1 141.406 28.906 Q 140.743 28.906 139.853 28.85 A 45.063 45.063 0 0 1 138.965 28.784 Q 137.5 28.662 136.133 28.15 A 6.819 6.819 0 0 1 134.268 27.107 A 6.319 6.319 0 0 1 133.789 26.685 A 3.12 3.12 0 0 1 132.939 25.154 Q 132.817 24.654 132.813 24.062 A 5.936 5.936 0 0 1 132.813 24.024 A 37.679 37.679 0 0 0 132.738 21.595 Q 132.661 20.408 132.505 19.355 A 23.006 23.006 0 0 0 132.495 19.287 A 12.662 12.662 0 0 0 132.119 17.572 Q 131.815 16.547 131.348 15.723 A 5.645 5.645 0 0 0 129.053 13.477 Q 127.858 12.84 126.112 12.722 A 12.197 12.197 0 0 0 125.293 12.695 A 9.218 9.218 0 0 0 123.905 12.793 Q 122.496 13.008 121.607 13.696 A 7.896 7.896 0 0 0 120.618 14.597 Q 120.094 15.167 119.769 15.787 A 4.871 4.871 0 0 0 119.727 15.869 A 7.918 7.918 0 0 0 119.035 18.159 A 9.616 9.616 0 0 0 118.945 19.043 Z M 236.719 37.891 L 236.719 40.918 A 15.075 15.075 0 0 1 236.705 41.542 Q 236.691 41.886 236.662 42.272 A 27.975 27.975 0 0 1 236.621 42.749 A 4.046 4.046 0 0 1 236.074 44.421 A 4.927 4.927 0 0 1 235.864 44.751 Q 235.205 45.703 233.789 46.387 A 5.693 5.693 0 0 1 232.677 46.776 Q 231.484 47.07 229.785 47.07 L 210.352 47.07 L 210.352 51.758 A 10.375 10.375 0 0 0 210.503 53.493 A 12.241 12.241 0 0 0 210.645 54.199 Q 210.938 55.469 211.646 56.543 A 5.565 5.565 0 0 0 213.489 58.279 A 6.431 6.431 0 0 0 213.526 58.301 A 4.818 4.818 0 0 0 214.968 58.844 Q 215.632 58.985 216.406 58.985 A 13.304 13.304 0 0 0 217.486 58.944 Q 218.671 58.847 219.409 58.521 Q 220.418 58.075 221.021 57.427 A 3.573 3.573 0 0 0 221.069 57.373 Q 221.68 56.69 222.168 55.908 A 5.909 5.909 0 0 1 222.946 54.925 A 7.33 7.33 0 0 1 223.462 54.444 A 4.755 4.755 0 0 1 224.221 53.924 Q 224.853 53.571 225.708 53.296 A 7.85 7.85 0 0 1 226.772 53.042 Q 227.982 52.832 229.688 52.832 A 14.092 14.092 0 0 1 232.056 53.028 A 6.147 6.147 0 0 1 233.308 53.374 A 5.133 5.133 0 0 1 234.082 53.76 A 4.003 4.003 0 0 1 235.456 55.175 A 4.716 4.716 0 0 1 235.498 55.249 A 3.82 3.82 0 0 1 235.875 56.227 Q 236.035 56.887 236.035 57.715 A 8.28 8.28 0 0 1 235.61 60.418 A 7.114 7.114 0 0 1 234.033 63.013 A 13.818 13.818 0 0 1 230.54 65.672 A 16.94 16.94 0 0 1 229.004 66.406 A 26.925 26.925 0 0 1 223.8 67.975 A 31.006 31.006 0 0 1 222.437 68.213 A 48.902 48.902 0 0 1 218.601 68.647 A 38.921 38.921 0 0 1 215.82 68.75 A 31.783 31.783 0 0 1 209.26 68.007 A 29.083 29.083 0 0 1 208.106 67.725 A 18.711 18.711 0 0 1 202.999 65.542 A 17.252 17.252 0 0 1 201.636 64.6 A 14.883 14.883 0 0 1 197.658 59.934 A 17.754 17.754 0 0 1 197.168 58.985 A 15.91 15.91 0 0 1 195.949 55.259 Q 195.598 53.524 195.526 51.525 A 29.022 29.022 0 0 1 195.508 50.488 L 195.508 39.063 A 32.684 32.684 0 0 1 195.676 35.655 Q 195.855 33.943 196.228 32.48 A 16.852 16.852 0 0 1 196.607 31.201 A 20.303 20.303 0 0 1 197.781 28.416 A 14.84 14.84 0 0 1 199.463 25.83 A 14.244 14.244 0 0 1 201.832 23.517 A 12.28 12.28 0 0 1 203.418 22.486 A 20.09 20.09 0 0 1 207.003 20.95 A 18.131 18.131 0 0 1 207.861 20.703 A 25.693 25.693 0 0 1 210.517 20.152 A 21.043 21.043 0 0 1 212.134 19.971 A 66.415 66.415 0 0 1 213.575 19.882 Q 214.284 19.846 214.908 19.832 A 33.416 33.416 0 0 1 215.625 19.824 Q 219.497 19.824 222.481 20.366 A 23.933 23.933 0 0 1 224.048 20.703 Q 227.539 21.582 229.883 22.998 A 14.515 14.515 0 0 1 231.981 24.522 A 11.143 11.143 0 0 1 233.594 26.27 A 15.065 15.065 0 0 1 235.151 28.879 A 13.134 13.134 0 0 1 235.645 30.103 Q 236.328 32.08 236.524 34.107 A 43.281 43.281 0 0 1 236.687 36.418 A 34.7 34.7 0 0 1 236.719 37.891 Z M 378.809 37.891 L 378.809 40.918 A 15.075 15.075 0 0 1 378.795 41.542 Q 378.781 41.886 378.752 42.272 A 27.975 27.975 0 0 1 378.711 42.749 A 4.046 4.046 0 0 1 378.164 44.421 A 4.927 4.927 0 0 1 377.954 44.751 Q 377.295 45.703 375.879 46.387 A 5.693 5.693 0 0 1 374.767 46.776 Q 373.573 47.07 371.875 47.07 L 352.442 47.07 L 352.442 51.758 A 10.375 10.375 0 0 0 352.593 53.493 A 12.241 12.241 0 0 0 352.735 54.199 Q 353.027 55.469 353.736 56.543 A 5.565 5.565 0 0 0 355.579 58.279 A 6.431 6.431 0 0 0 355.615 58.301 A 4.818 4.818 0 0 0 357.058 58.844 Q 357.722 58.985 358.496 58.985 A 13.304 13.304 0 0 0 359.576 58.944 Q 360.761 58.847 361.499 58.521 Q 362.507 58.075 363.11 57.427 A 3.573 3.573 0 0 0 363.159 57.373 Q 363.77 56.69 364.258 55.908 A 5.909 5.909 0 0 1 365.036 54.925 A 7.33 7.33 0 0 1 365.552 54.444 A 4.755 4.755 0 0 1 366.311 53.924 Q 366.943 53.571 367.798 53.296 A 7.85 7.85 0 0 1 368.862 53.042 Q 370.072 52.832 371.777 52.832 A 14.092 14.092 0 0 1 374.146 53.028 A 6.147 6.147 0 0 1 375.398 53.374 A 5.133 5.133 0 0 1 376.172 53.76 A 4.003 4.003 0 0 1 377.546 55.175 A 4.716 4.716 0 0 1 377.588 55.249 A 3.82 3.82 0 0 1 377.965 56.227 Q 378.125 56.887 378.125 57.715 A 8.28 8.28 0 0 1 377.7 60.418 A 7.114 7.114 0 0 1 376.123 63.013 A 13.818 13.818 0 0 1 372.63 65.672 A 16.94 16.94 0 0 1 371.094 66.406 A 26.925 26.925 0 0 1 365.89 67.975 A 31.006 31.006 0 0 1 364.527 68.213 A 48.902 48.902 0 0 1 360.691 68.647 A 38.921 38.921 0 0 1 357.91 68.75 A 31.783 31.783 0 0 1 351.349 68.007 A 29.083 29.083 0 0 1 350.195 67.725 A 18.711 18.711 0 0 1 345.089 65.542 A 17.252 17.252 0 0 1 343.726 64.6 A 14.883 14.883 0 0 1 339.748 59.934 A 17.754 17.754 0 0 1 339.258 58.985 A 15.91 15.91 0 0 1 338.039 55.259 Q 337.687 53.524 337.616 51.525 A 29.022 29.022 0 0 1 337.598 50.488 L 337.598 39.063 A 32.684 32.684 0 0 1 337.765 35.655 Q 337.945 33.943 338.318 32.48 A 16.852 16.852 0 0 1 338.696 31.201 A 20.303 20.303 0 0 1 339.871 28.416 A 14.84 14.84 0 0 1 341.553 25.83 A 14.244 14.244 0 0 1 343.922 23.517 A 12.28 12.28 0 0 1 345.508 22.486 A 20.09 20.09 0 0 1 349.093 20.95 A 18.131 18.131 0 0 1 349.951 20.703 A 25.693 25.693 0 0 1 352.607 20.152 A 21.043 21.043 0 0 1 354.224 19.971 A 66.415 66.415 0 0 1 355.665 19.882 Q 356.374 19.846 356.998 19.832 A 33.416 33.416 0 0 1 357.715 19.824 Q 361.587 19.824 364.571 20.366 A 23.933 23.933 0 0 1 366.138 20.703 Q 369.629 21.582 371.973 22.998 A 14.515 14.515 0 0 1 374.071 24.522 A 11.143 11.143 0 0 1 375.684 26.27 A 15.065 15.065 0 0 1 377.241 28.879 A 13.134 13.134 0 0 1 377.735 30.103 Q 378.418 32.08 378.613 34.107 A 43.281 43.281 0 0 1 378.777 36.418 A 34.7 34.7 0 0 1 378.809 37.891 Z M 300.488 19.922 L 303.223 19.922 L 303.223 11.328 Q 303.223 9.278 303.443 7.324 A 11.115 11.115 0 0 1 303.867 5.258 A 9.146 9.146 0 0 1 304.444 3.833 Q 305.225 2.295 306.69 1.343 Q 307.845 0.592 309.64 0.433 A 11.432 11.432 0 0 1 310.645 0.391 A 10.193 10.193 0 0 1 312.208 0.503 Q 313.59 0.718 314.551 1.343 A 6.178 6.178 0 0 1 316.773 3.833 A 9.792 9.792 0 0 1 317.535 6.031 A 12.18 12.18 0 0 1 317.749 7.324 Q 317.969 9.278 317.969 11.328 L 317.969 19.922 L 321.973 19.922 Q 323.242 19.922 324.512 20.044 Q 325.781 20.166 326.782 20.752 A 4.015 4.015 0 0 1 328.053 21.945 A 5.149 5.149 0 0 1 328.394 22.51 A 4.587 4.587 0 0 1 328.76 23.496 Q 329.004 24.452 329.004 25.779 A 8.415 8.415 0 0 1 329.004 25.781 A 10.673 10.673 0 0 1 328.938 27.006 Q 328.868 27.614 328.722 28.12 A 4.516 4.516 0 0 1 328.394 28.955 A 4.768 4.768 0 0 1 327.692 29.974 A 3.881 3.881 0 0 1 326.782 30.713 A 5.835 5.835 0 0 1 325.054 31.375 A 6.968 6.968 0 0 1 324.512 31.47 A 19.011 19.011 0 0 1 321.973 31.641 L 317.969 31.641 L 317.969 48.731 A 29.23 29.23 0 0 0 317.998 49.999 A 34.967 34.967 0 0 0 318.042 50.806 A 5.68 5.68 0 0 0 318.379 52.414 A 5.229 5.229 0 0 0 318.555 52.832 A 3.865 3.865 0 0 0 319.873 54.37 Q 320.527 54.824 321.585 54.941 A 7.133 7.133 0 0 0 322.363 54.981 A 19.455 19.455 0 0 1 323.61 55.018 Q 324.221 55.058 324.755 55.138 A 9.889 9.889 0 0 1 325.366 55.249 A 5.475 5.475 0 0 1 326.405 55.578 A 4.07 4.07 0 0 1 327.417 56.201 A 3.603 3.603 0 0 1 328.245 57.234 A 4.97 4.97 0 0 1 328.613 58.106 A 7.153 7.153 0 0 1 328.851 59.117 Q 328.937 59.637 328.975 60.24 A 15.979 15.979 0 0 1 329.004 61.231 A 7.077 7.077 0 0 1 328.806 62.943 A 5.547 5.547 0 0 1 328.101 64.6 A 7.379 7.379 0 0 1 325.778 66.885 A 8.515 8.515 0 0 1 325.684 66.944 A 10.49 10.49 0 0 1 323.515 67.941 A 13.164 13.164 0 0 1 322.168 68.311 Q 320.166 68.75 317.969 68.75 A 27.453 27.453 0 0 1 315.317 68.629 Q 314.011 68.502 312.888 68.242 A 14.433 14.433 0 0 1 312.036 68.018 A 13.666 13.666 0 0 1 309.907 67.197 A 10.106 10.106 0 0 1 307.935 65.943 Q 306.299 64.6 305.347 62.72 Q 304.395 60.84 303.931 58.496 A 31.765 31.765 0 0 1 303.469 55.262 A 38.471 38.471 0 0 1 303.345 53.443 A 122.244 122.244 0 0 1 303.23 49.227 A 140.498 140.498 0 0 1 303.223 47.754 L 303.223 31.641 L 300.488 31.641 A 18.471 18.471 0 0 1 297.974 31.47 A 6.154 6.154 0 0 1 296.522 31.094 A 5.355 5.355 0 0 1 295.752 30.713 A 3.998 3.998 0 0 1 294.582 29.63 A 5.212 5.212 0 0 1 294.165 28.955 A 4.711 4.711 0 0 1 293.781 27.913 Q 293.555 27.001 293.555 25.781 Q 293.555 24.426 293.809 23.457 A 4.547 4.547 0 0 1 294.165 22.51 A 4.93 4.93 0 0 1 294.83 21.526 A 3.888 3.888 0 0 1 295.752 20.752 Q 296.729 20.166 297.974 20.044 A 25.758 25.758 0 0 1 300.488 19.922 Z M 285.352 31.055 L 285.352 57.715 A 54.523 54.523 0 0 1 285.205 61.743 A 11.044 11.044 0 0 1 284.859 63.823 A 8.966 8.966 0 0 1 284.326 65.283 A 5.969 5.969 0 0 1 282.129 67.798 Q 281.045 68.503 279.318 68.686 A 12.261 12.261 0 0 1 278.027 68.75 A 12.977 12.977 0 0 1 276.463 68.662 Q 275.666 68.565 275.007 68.361 A 5.414 5.414 0 0 1 273.828 67.847 A 7.106 7.106 0 0 1 272.599 66.931 A 5.416 5.416 0 0 1 271.582 65.65 A 7.212 7.212 0 0 1 270.679 62.94 Q 270.551 61.883 270.519 61.071 A 13.185 13.185 0 0 1 270.508 60.547 A 14.696 14.696 0 0 1 269.741 62.494 A 17.663 17.663 0 0 1 269.263 63.428 A 10.383 10.383 0 0 1 267.188 66.065 A 9.997 9.997 0 0 1 265.098 67.535 A 12.063 12.063 0 0 1 264.136 67.993 A 9.16 9.16 0 0 1 262.07 68.584 Q 261.083 68.75 259.961 68.75 Q 257.276 68.75 254.59 67.871 A 12.633 12.633 0 0 1 249.756 64.942 A 13.596 13.596 0 0 1 247.489 62.067 A 18.11 18.11 0 0 1 246.265 59.595 Q 245.158 56.878 244.964 53.117 A 31.995 31.995 0 0 1 244.922 51.465 L 244.922 37.305 A 29.537 29.537 0 0 1 245.111 33.866 Q 245.317 32.107 245.75 30.616 A 15.057 15.057 0 0 1 246.265 29.126 A 17.531 17.531 0 0 1 247.701 26.315 A 13.114 13.114 0 0 1 249.756 23.804 Q 251.904 21.778 254.59 20.899 Q 257.276 20.02 259.961 20.02 A 13.266 13.266 0 0 1 261.938 20.16 Q 263.059 20.329 264.01 20.702 A 8.23 8.23 0 0 1 264.136 20.752 A 10.787 10.787 0 0 1 266.163 21.839 A 9.214 9.214 0 0 1 267.188 22.656 A 10.383 10.383 0 0 1 269.263 25.293 Q 270.069 26.758 270.508 28.223 A 14.391 14.391 0 0 1 270.603 26.517 Q 270.763 25.18 271.192 24.17 A 8.38 8.38 0 0 1 271.891 22.845 A 6.142 6.142 0 0 1 272.949 21.607 A 5.974 5.974 0 0 1 275.366 20.288 A 10.103 10.103 0 0 1 277.945 19.922 A 9.501 9.501 0 0 1 278.027 19.922 A 10.193 10.193 0 0 1 279.591 20.035 Q 280.972 20.249 281.934 20.874 A 6.178 6.178 0 0 1 284.155 23.364 A 9.552 9.552 0 0 1 284.865 25.363 A 12.507 12.507 0 0 1 285.132 26.929 A 38.25 38.25 0 0 1 285.352 31.055 Z M 173.438 44.141 L 173.438 58.106 Q 173.438 60.108 173.218 62.012 A 10.53 10.53 0 0 1 172.793 64.023 A 8.659 8.659 0 0 1 172.217 65.405 A 6.275 6.275 0 0 1 169.971 67.822 Q 168.816 68.554 167.024 68.709 A 11.726 11.726 0 0 1 166.016 68.75 A 10.443 10.443 0 0 1 164.524 68.65 Q 163.74 68.537 163.097 68.295 A 4.798 4.798 0 0 1 162.158 67.822 Q 160.742 66.895 159.986 65.405 A 9.263 9.263 0 0 1 159.223 63.272 A 11.547 11.547 0 0 1 159.009 62.012 Q 158.789 60.108 158.789 58.106 L 158.789 30.762 Q 158.789 28.711 159.009 26.782 Q 159.229 24.854 159.986 23.34 Q 160.742 21.826 162.158 20.923 Q 163.574 20.02 166.016 20.02 A 9.1 9.1 0 0 1 167.46 20.127 Q 168.239 20.252 168.864 20.524 A 4.17 4.17 0 0 1 169.849 21.118 A 6.386 6.386 0 0 1 171.744 23.736 A 7.583 7.583 0 0 1 171.826 23.95 A 11.944 11.944 0 0 1 172.419 26.332 A 14.9 14.9 0 0 1 172.559 27.808 A 90.396 90.396 0 0 1 172.656 31.683 A 82.522 82.522 0 0 1 172.656 31.934 L 173.438 31.934 A 25.434 25.434 0 0 1 174.464 28.716 A 21.142 21.142 0 0 1 175.244 26.978 Q 176.367 24.756 177.735 23.218 Q 179.102 21.68 180.664 20.85 A 7.298 7.298 0 0 1 182.324 20.202 A 6.042 6.042 0 0 1 183.789 20.02 A 14.359 14.359 0 0 1 185.015 20.069 Q 186.105 20.162 186.89 20.435 Q 188.086 20.85 188.77 21.729 Q 189.434 22.583 189.683 23.898 A 7.351 7.351 0 0 1 189.697 23.975 A 14.193 14.193 0 0 1 189.855 25.174 Q 189.915 25.821 189.933 26.558 A 27.438 27.438 0 0 1 189.942 27.246 Q 189.942 29.616 189.214 31.192 A 5.139 5.139 0 0 1 188.062 32.813 Q 186.182 34.57 182.715 34.57 Q 182.227 34.57 181.323 34.644 A 8.066 8.066 0 0 0 180.269 34.803 A 10.42 10.42 0 0 0 179.395 35.034 A 9.461 9.461 0 0 0 178.006 35.593 A 11.442 11.442 0 0 0 177.319 35.962 A 6.954 6.954 0 0 0 175.913 37.052 A 8.466 8.466 0 0 0 175.391 37.622 Q 174.512 38.672 173.975 40.283 A 9.735 9.735 0 0 0 173.598 41.874 Q 173.478 42.653 173.448 43.538 A 17.725 17.725 0 0 0 173.438 44.141 Z M 53.613 50.391 L 53.613 38.281 Q 53.613 34.549 54.456 31.761 A 14.695 14.695 0 0 1 54.834 30.664 A 18.7 18.7 0 0 1 56.281 27.714 A 14.593 14.593 0 0 1 57.984 25.44 A 15.069 15.069 0 0 1 61.115 22.818 A 13.695 13.695 0 0 1 62.28 22.168 A 25.146 25.146 0 0 1 65.43 20.858 A 21.395 21.395 0 0 1 66.944 20.41 Q 69.238 19.824 71.216 19.678 A 80.089 80.089 0 0 1 72.151 19.614 Q 73.474 19.531 74.317 19.531 A 23.851 23.851 0 0 1 75.1 19.546 Q 75.916 19.573 77.023 19.651 A 85.779 85.779 0 0 1 77.393 19.678 A 20.939 20.939 0 0 1 79.675 19.982 A 26.637 26.637 0 0 1 81.568 20.41 Q 83.789 20.996 86.06 22.168 A 13.562 13.562 0 0 1 89.519 24.745 A 15.901 15.901 0 0 1 90.161 25.44 A 15.053 15.053 0 0 1 92.058 28.21 A 19.928 19.928 0 0 1 93.164 30.664 Q 94.151 33.295 94.307 36.894 A 32.033 32.033 0 0 1 94.336 38.281 L 94.336 50.391 A 28.677 28.677 0 0 1 94.15 53.753 Q 93.869 56.128 93.164 58.008 A 19.48 19.48 0 0 1 91.839 60.856 A 14.778 14.778 0 0 1 90.161 63.233 Q 88.33 65.332 86.06 66.504 Q 83.789 67.676 81.568 68.262 A 25.842 25.842 0 0 1 79.153 68.782 A 20.326 20.326 0 0 1 77.393 68.994 A 77.391 77.391 0 0 1 76.468 69.058 Q 75.159 69.141 74.317 69.141 A 22.581 22.581 0 0 1 73.702 69.132 Q 73.012 69.113 72.096 69.055 A 80.967 80.967 0 0 1 71.216 68.994 A 21.975 21.975 0 0 1 68.924 68.697 A 28.71 28.71 0 0 1 66.944 68.262 A 22.62 22.62 0 0 1 63.753 67.179 A 26.775 26.775 0 0 1 62.28 66.504 A 14.412 14.412 0 0 1 58.473 63.743 A 16.672 16.672 0 0 1 57.984 63.233 A 15.022 15.022 0 0 1 55.872 60.25 A 19.423 19.423 0 0 1 54.834 58.008 A 16.508 16.508 0 0 1 53.979 54.895 Q 53.705 53.363 53.637 51.603 A 31.043 31.043 0 0 1 53.613 50.391 Z M 68.652 36.133 L 68.652 53.809 A 5.722 5.722 0 0 0 68.867 55.207 A 4.713 4.713 0 0 0 69.336 56.299 A 4.362 4.362 0 0 0 70.133 57.328 Q 70.519 57.701 71.021 58.032 A 3.959 3.959 0 0 0 72.07 58.508 Q 72.568 58.657 73.171 58.727 A 9.961 9.961 0 0 0 74.317 58.789 Q 75.649 58.789 76.58 58.47 A 3.633 3.633 0 0 0 77.466 58.032 A 6.019 6.019 0 0 0 78.373 57.275 A 4.54 4.54 0 0 0 79.102 56.299 A 5.554 5.554 0 0 0 79.66 54.742 A 7.091 7.091 0 0 0 79.785 53.809 L 79.785 36.133 A 7.522 7.522 0 0 0 79.394 34.158 A 6.775 6.775 0 0 0 79.102 33.447 Q 78.58 32.499 77.53 31.667 A 8.681 8.681 0 0 0 77.466 31.616 A 3.632 3.632 0 0 0 76.322 31.032 Q 75.47 30.762 74.317 30.762 A 8.669 8.669 0 0 0 73.072 30.845 Q 72.441 30.937 71.928 31.13 A 3.672 3.672 0 0 0 71.021 31.616 Q 69.873 32.471 69.336 33.447 Q 68.701 34.668 68.652 36.133 Z M 259.961 38.379 L 259.961 50.195 Q 259.961 51.514 260.059 52.783 A 7.847 7.847 0 0 0 260.286 54.17 A 6.444 6.444 0 0 0 260.596 55.078 A 3.922 3.922 0 0 0 261.396 56.292 A 3.696 3.696 0 0 0 261.89 56.714 Q 262.744 57.324 264.258 57.324 Q 265.863 57.324 266.965 56.717 A 3.979 3.979 0 0 0 267.359 56.47 A 4.642 4.642 0 0 0 268.481 55.305 Q 268.835 54.791 269.114 54.141 A 8.572 8.572 0 0 0 269.238 53.833 Q 269.755 52.486 270.035 50.609 A 26.062 26.062 0 0 0 270.191 49.341 Q 270.396 47.266 270.473 44.576 A 109.682 109.682 0 0 0 270.508 42.871 Q 270.508 41.358 270.239 39.38 A 16.413 16.413 0 0 0 269.371 35.865 A 15.295 15.295 0 0 0 269.287 35.645 A 8.934 8.934 0 0 0 268.159 33.569 A 7.925 7.925 0 0 0 267.383 32.666 A 4.123 4.123 0 0 0 264.725 31.465 A 5.565 5.565 0 0 0 264.258 31.445 A 6.058 6.058 0 0 0 263.336 31.511 Q 262.859 31.585 262.471 31.741 A 2.782 2.782 0 0 0 261.89 32.056 Q 261.035 32.666 260.596 33.643 Q 260.156 34.619 260.059 35.864 A 32.149 32.149 0 0 0 259.961 38.379 Z M 210.352 36.328 L 210.352 39.746 L 222.559 39.746 Q 222.559 37.774 222.469 36.18 A 43.164 43.164 0 0 0 222.437 35.669 Q 222.315 33.887 221.704 32.666 A 4.042 4.042 0 0 0 219.85 30.836 A 4.985 4.985 0 0 0 219.8 30.811 Q 218.561 30.203 216.314 30.177 A 17.517 17.517 0 0 0 216.113 30.176 Q 214.8 30.176 213.854 30.449 A 4.299 4.299 0 0 0 212.964 30.811 A 5.29 5.29 0 0 0 212.012 31.476 A 4.105 4.105 0 0 0 211.231 32.398 A 5.161 5.161 0 0 0 210.498 34.424 Q 210.352 35.498 210.352 36.328 Z M 352.442 36.328 L 352.442 39.746 L 364.649 39.746 Q 364.649 37.774 364.558 36.18 A 43.164 43.164 0 0 0 364.527 35.669 Q 364.404 33.887 363.794 32.666 A 4.042 4.042 0 0 0 361.94 30.836 A 4.985 4.985 0 0 0 361.89 30.811 Q 360.651 30.203 358.404 30.177 A 17.517 17.517 0 0 0 358.203 30.176 Q 356.889 30.176 355.944 30.449 A 4.299 4.299 0 0 0 355.054 30.811 A 5.29 5.29 0 0 0 354.102 31.476 A 4.105 4.105 0 0 0 353.32 32.398 A 5.161 5.161 0 0 0 352.588 34.424 Q 352.442 35.498 352.442 36.328 Z" vector-effect="non-scaling-stroke"/></g></svg>